<svg xmlns="http://www.w3.org/2000/svg" width="339.219" height="50" viewBox="0 0 339.219 50">
  <g id="Logo_with_name" data-name="Logo with name" transform="translate(-70 -42)">
    <g id="BF_Logo_-_Blue" data-name="BF Logo - Blue" transform="translate(70 42)">
      <path id="BF_Logo_-_Blue-2" data-name="BF Logo - Blue" d="M45.512,49.989c-.208,0-7.326-.47-7.378-.481S1.928,45.616,1.928,45.616A1.168,1.168,0,0,1,.975,44.7L.012,40.479s-.046-.162.044-.177.13.114.155.177,1.579,3.584,1.579,3.584l36.345.013a8.539,8.539,0,0,0,14,0H88.073s.019.046.115-.234,1.343-3.466,1.343-3.466.027-.1.111-.091.073.113.064.166-.669,3.707-.669,3.707l-.078.447a1.213,1.213,0,0,1-1.023,1.036c-.945.084-33.4,3.581-33.4,3.581S48.063,50,45.892,50C45.744,50,45.617,50,45.512,49.989Zm-42.7-8.067a42.645,42.645,0,0,1,.243-4.29A42.077,42.077,0,0,1,15.3,12.27,42.248,42.248,0,0,1,36.642.851c1.376-.28,2.785-.493,4.188-.635C42.253.073,43.7,0,45.141,0s2.888.073,4.312.216c1.4.142,2.811.355,4.188.635a42.116,42.116,0,0,1,33.583,36.78,42.721,42.721,0,0,1,.243,4.29H2.816Zm81.908,0a39.584,39.584,0,0,0-79.166,0H7.623a37.492,37.492,0,0,1,.8-7.487A37.1,37.1,0,0,1,14.1,21.156a37.515,37.515,0,0,1,65.45,6.306,37.1,37.1,0,0,1,2.207,6.971,37.5,37.5,0,0,1,.8,7.487Zm-31.513,0a8.605,8.605,0,0,0,.444-2.618l1.383-.668a4.162,4.162,0,1,0-.469-1.911c0,.126.006.256.018.387H53.406a8.543,8.543,0,0,0-2.553-4.285,8.428,8.428,0,0,0-4.526-2.13c-.037-.647-.24-4.172-.406-7.031l1.214-.067c4.571-.25,9.821-.537,9.853-.542a.4.4,0,0,0,.237-.12.162.162,0,0,0,.03-.127A.288.288,0,0,0,57,22.583l-.009,0s-.913,0-2.371,0l-8.758,0c-.029-.493-.054-.925-.074-1.265l0-.049c-.023-.4-.039-.665-.043-.728a.812.812,0,0,0-.227-.488.647.647,0,0,0-.4-.178.654.654,0,0,0-.554.319.911.911,0,0,0-.119.3l-.122,2.085-10.883.006h-.192s-.272.014-.284.238c.021.215.3.232.327.233h0l10.968.6-.411,7.053a8.438,8.438,0,0,0-4.448,2.153,8.545,8.545,0,0,0-2.508,4.247h-1.3c.012-.124.018-.255.018-.389a4.184,4.184,0,1,0-.451,1.877l1.481.731a8.609,8.609,0,0,0,.443,2.59Z" transform="translate(0)" fill="#051b2e"/>
    </g>
    <path id="Union_2" data-name="Union 2" d="M18501.2,22457.8a2.378,2.378,0,0,1-.986-.807,2.053,2.053,0,0,1-.383-1.148h.885a1.665,1.665,0,0,0,.541,1.07,1.939,1.939,0,0,0,1.4.463,1.989,1.989,0,0,0,1.352-.436,1.416,1.416,0,0,0,.5-1.109,1.307,1.307,0,0,0-.275-.873,1.643,1.643,0,0,0-.684-.49,11.119,11.119,0,0,0-1.127-.355,9.517,9.517,0,0,1-1.336-.445,2.1,2.1,0,0,1-.84-.672,1.992,1.992,0,0,1-.344-1.234,2.048,2.048,0,0,1,.334-1.16,2.274,2.274,0,0,1,.945-.795,3.3,3.3,0,0,1,1.4-.287,2.92,2.92,0,0,1,1.883.568,2.152,2.152,0,0,1,.822,1.473h-.912a1.521,1.521,0,0,0-.564-.92,2.244,2.244,0,0,0-2.559,0,1.316,1.316,0,0,0-.5,1.1,1.291,1.291,0,0,0,.271.852,1.814,1.814,0,0,0,.693.49,10.329,10.329,0,0,0,1.121.359,10,10,0,0,1,1.318.451,2.106,2.106,0,0,1,.852.678,1.932,1.932,0,0,1,.35,1.223,2.134,2.134,0,0,1-.311,1.115,2.262,2.262,0,0,1-.924.852,3.056,3.056,0,0,1-1.465.326A3.507,3.507,0,0,1,18501.2,22457.8Zm-59.355-.26a3.994,3.994,0,0,1-1.494-1.521,4.774,4.774,0,0,1,0-4.43,3.913,3.913,0,0,1,1.494-1.521,4.412,4.412,0,0,1,4.465.123,3.844,3.844,0,0,1,1.465,1.871h-.986a2.821,2.821,0,0,0-1.1-1.3,3.128,3.128,0,0,0-1.73-.475,3.272,3.272,0,0,0-1.68.436,3.052,3.052,0,0,0-1.178,1.229,3.833,3.833,0,0,0-.434,1.854,3.873,3.873,0,0,0,.434,1.859,3.043,3.043,0,0,0,1.178,1.234,3.466,3.466,0,0,0,3.258.057,2.928,2.928,0,0,0,1.129-1.082,3.558,3.558,0,0,0,.484-1.635h-3.529v-.687h4.414v.615a4.2,4.2,0,0,1-.6,1.994,3.934,3.934,0,0,1-1.443,1.41,4.048,4.048,0,0,1-2.035.518A4.122,4.122,0,0,1,18441.848,22457.537Zm-23.373,0a3.912,3.912,0,0,1-1.494-1.521,4.758,4.758,0,0,1,0-4.43,3.836,3.836,0,0,1,1.494-1.521,4.368,4.368,0,0,1,4.232,0,3.86,3.86,0,0,1,1.488,1.521,4.8,4.8,0,0,1,0,4.43,3.938,3.938,0,0,1-1.488,1.521,4.368,4.368,0,0,1-4.232,0Zm.428-6.848a3.109,3.109,0,0,0-1.172,1.24,3.837,3.837,0,0,0-.434,1.871,3.877,3.877,0,0,0,.434,1.877,3.035,3.035,0,0,0,1.172,1.24,3.47,3.47,0,0,0,3.359,0,3.048,3.048,0,0,0,1.178-1.24,3.92,3.92,0,0,0,.43-1.877,3.88,3.88,0,0,0-.43-1.871,3.122,3.122,0,0,0-1.178-1.24,3.512,3.512,0,0,0-3.359,0Zm-42.779,6.848a3.975,3.975,0,0,1-1.492-1.521,4.758,4.758,0,0,1,0-4.43,3.9,3.9,0,0,1,1.492-1.521,4.372,4.372,0,0,1,4.234,0,3.818,3.818,0,0,1,1.492,1.521,4.8,4.8,0,0,1,0,4.43,3.894,3.894,0,0,1-1.492,1.521,4.372,4.372,0,0,1-4.234,0Zm.436-6.848a3.122,3.122,0,0,0-1.178,1.24,3.882,3.882,0,0,0-.436,1.871,3.922,3.922,0,0,0,.436,1.877,3.048,3.048,0,0,0,1.178,1.24,3.47,3.47,0,0,0,3.359,0,3.035,3.035,0,0,0,1.172-1.24,3.877,3.877,0,0,0,.434-1.877,3.837,3.837,0,0,0-.434-1.871,3.109,3.109,0,0,0-1.172-1.24,3.512,3.512,0,0,0-3.359,0Zm-67.85,6.838a3.953,3.953,0,0,1-1.477-1.518,4.792,4.792,0,0,1,0-4.424,3.871,3.871,0,0,1,1.477-1.521,4.033,4.033,0,0,1,2.086-.547,4.233,4.233,0,0,1,2.406.664,3.8,3.8,0,0,1,1.459,1.877h-.986a2.844,2.844,0,0,0-1.1-1.33,3.18,3.18,0,0,0-1.781-.479,3.218,3.218,0,0,0-1.658.428,3.022,3.022,0,0,0-1.16,1.246,4.009,4.009,0,0,0-.418,1.877,3.968,3.968,0,0,0,.418,1.871,2.991,2.991,0,0,0,1.16,1.234,3.491,3.491,0,0,0,3.439-.039,2.828,2.828,0,0,0,1.1-1.312h.986a3.762,3.762,0,0,1-1.465,1.859,4.279,4.279,0,0,1-2.4.658A4.051,4.051,0,0,1,18308.709,22457.527Zm171.455.473v-8.4h4.379v.693H18481v3.135h3.178v.693H18481v3.184h3.539v.693Zm-16.668,0v-8.387h.84V22458Zm-65.65,0v-8.387h.84v7.705h3.01v.682Zm-40.045,0-4.645-7.057V22458h-.84v-8.387h.84l4.645,7.045v-7.045h.84V22458Zm-22.162,0v-3.924h-4.549V22458h-.84v-8.387h.84v3.766h4.549v-3.766h.84V22458Zm-48.521,0v-8.4h4.385v.693h-3.541v3.135h3.18v.693h-3.18v3.184h3.541v.693Zm-18.42,0v-7.693h-2.34v-.693h5.508v.693h-2.328V22458Zm178.482-17.963a9.406,9.406,0,0,1-4.018-3.7,11.485,11.485,0,0,1-1.482-6.02v-17.242h5.6v17.281a5.925,5.925,0,0,0,1.477,4.34,6.573,6.573,0,0,0,8.359,0,5.9,5.9,0,0,0,1.482-4.34v-17.281h5.641v17.242a11.091,11.091,0,0,1-1.543,6.02,9.693,9.693,0,0,1-4.115,3.7,13.083,13.083,0,0,1-5.744,1.24A12.7,12.7,0,0,1,18447.18,22440.037Zm43.738.963v-27.922h5.6v23.482h9.2V22441Zm-21.277,0v-27.961h16.2v4.561h-10.6v7h9.4v4.441h-9.4v7.4h10.6V22441Zm-49.08,0v-27.922h17.24v4.521h-11.639v7.158h8.916v4.441h-8.916v11.8Zm-27.883,0v-27.922h5.6v23.482h9.2V22441Zm-21.277,0v-27.961h16.2v4.561H18377v7h9.4v4.441h-9.4v7.4h10.6V22441Zm-11.238,0-6.16-10.883h-2.645V22441h-5.6v-27.922h10.479a12.227,12.227,0,0,1,5.518,1.145,7.9,7.9,0,0,1,3.42,3.078,8.658,8.658,0,0,1-.455,9.316,8.208,8.208,0,0,1-4.764,3.061l6.68,11.322Zm-8.8-15.082h4.68a4.694,4.694,0,0,0,3.4-1.1,4.092,4.092,0,0,0,1.121-3.061,3.911,3.911,0,0,0-1.121-2.982,4.81,4.81,0,0,0-3.4-1.055h-4.68Zm-16.84,15.082-6.16-10.883h-2.639V22441h-5.6v-27.922h10.482a12.221,12.221,0,0,1,5.518,1.145,7.908,7.908,0,0,1,3.422,3.078,8.685,8.685,0,0,1-.457,9.316,8.215,8.215,0,0,1-4.762,3.061L18341,22441Zm-8.8-15.082h4.684a4.685,4.685,0,0,0,3.4-1.1,4.1,4.1,0,0,0,1.117-3.061,3.924,3.924,0,0,0-1.117-2.982,4.8,4.8,0,0,0-3.4-1.055h-4.684Zm-15.279,15.082-1.838-5.32h-11.119l-1.844,5.32h-5.879l10.039-27.961h6.52l10.039,27.961Zm-11.441-9.8h8.082l-4.041-11.678Zm-33.236,9.8v-27.922h11.52a12.006,12.006,0,0,1,4.9.92,6.989,6.989,0,0,1,3.121,2.564,6.7,6.7,0,0,1,1.061,3.715,6.336,6.336,0,0,1-1.3,4.08,6.933,6.933,0,0,1-3.461,2.322,6.293,6.293,0,0,1,3.885,2.361,6.878,6.878,0,0,1,1.516,4.4,7.117,7.117,0,0,1-1.1,3.945,7.284,7.284,0,0,1-3.178,2.654,11.616,11.616,0,0,1-4.922.963Zm5.6-4.559H18277a4.808,4.808,0,0,0,3.178-.959,3.364,3.364,0,0,0,1.145-2.721,3.511,3.511,0,0,0-1.2-2.824,4.849,4.849,0,0,0-3.24-1.016h-5.523Zm0-11.842h5.123a4.663,4.663,0,0,0,3.078-.9,3.164,3.164,0,0,0,1.082-2.58,3.233,3.233,0,0,0-1.082-2.6,4.611,4.611,0,0,0-3.078-.918h-5.123Z" transform="translate(-18097 -22369.039)" fill="#051b2e" stroke="rgba(0,0,0,0)" stroke-miterlimit="10" stroke-width="1"/>
  </g>
</svg>
